# xmcd
#
# Track frame offsets:
#	150
#	30060
#	47925
#	69600
#	93745
#	115015
#	136540
#	184970
#	200395
#	220875
#	271645
#	291360
#	318115
#
# Disc length: 4473 seconds
#
# Revision: 0
# Processed by: cddbd v1.5.1PL0 Copyright (c) Steve Scherf et al.
# Submitted via: EasyCDDAExtractor 8.0.2.1
#
DISCID=b611770d
DTITLE=Ozzy Osbourne - Albuquerque 13-05-86
DYEAR=1986
DGENRE=Hard Rock
TTITLE0=Intro - Bark At The Moon
TTITLE1=Suicide Solution
TTITLE2=Never Know Why
TTITLE3=Mr Crowley
TTITLE4=Shot In The Dark
TTITLE5=I Don't Know
TTITLE6=Killer Of Giants
TTITLE7=Thank God For The Bomb
TTITLE8=Flying High Again
TTITLE9=Secret Loser Incl Drum Solo
TTITLE10=Iron Man
TTITLE11=Crazy Train
TTITLE12=Paranoid
EXTD=
EXTT0=
EXTT1=
EXTT2=
EXTT3=
EXTT4=
EXTT5=
EXTT6=
EXTT7=
EXTT8=
EXTT9=
EXTT10=
EXTT11=
EXTT12=
PLAYORDER=
